<?xml version="1.0" encoding="utf-8"?>
<!-- Generator: Adobe Illustrator 21.0.0, SVG Export Plug-In . SVG Version: 6.00 Build 0)  -->
<svg version="1.1" id="Layer_1" xmlns="http://www.w3.org/2000/svg" xmlns:xlink="http://www.w3.org/1999/xlink" x="0px" y="0px"
	 viewBox="-284.4 403.9 26.8 26.8" style="enable-background:new -284.4 403.9 26.8 26.8;" xml:space="preserve">
<style type="text/css">
	.st0{fill:#23303E;}
	.st1{fill:#3CB4B6;}
</style>
<g>
	<g>
		<path class="st0" d="M-274.5,410.2h-3c-0.4,0-0.6,0.3-0.6,0.6v3c0,0.4,0.3,0.6,0.6,0.6h3c0.4,0,0.6-0.3,0.6-0.6v-3
			C-273.8,410.5-274.1,410.2-274.5,410.2z M-275.1,411.4v1.7h-1.7v-1.7H-275.1z"/>
		<path class="st0" d="M-269.5,410.2h-3c-0.4,0-0.6,0.3-0.6,0.6v3c0,0.4,0.3,0.6,0.6,0.6h3c0.4,0,0.6-0.3,0.6-0.6v-3
			C-268.8,410.5-269.1,410.2-269.5,410.2z M-270.1,411.4v1.7h-1.7v-1.7H-270.1z"/>
		<path class="st1" d="M-264.5,410.2h-3c0,0,0,0,0,0c-0.2,0-0.3,0.1-0.5,0.2c-0.1,0.1-0.2,0.3-0.2,0.5v3c0,0.4,0.3,0.6,0.6,0.6h3
			c0.4,0,0.6-0.3,0.6-0.6v-3C-263.8,410.5-264.1,410.2-264.5,410.2z"/>
		<path class="st0" d="M-274.5,415.2h-3c-0.4,0-0.6,0.3-0.6,0.6v3c0,0.4,0.3,0.6,0.6,0.6h3c0.4,0,0.6-0.3,0.6-0.6v-3
			C-273.8,415.5-274.1,415.2-274.5,415.2z M-275.1,416.4v1.7h-1.7v-1.7H-275.1z"/>
		<path class="st0" d="M-269.5,415.2h-3c-0.4,0-0.6,0.3-0.6,0.6v3c0,0.4,0.3,0.6,0.6,0.6h3c0.4,0,0.6-0.3,0.6-0.6v-3
			C-268.8,415.5-269.1,415.2-269.5,415.2z M-270.1,416.4v1.7h-1.7v-1.7H-270.1z"/>
		<path class="st0" d="M-264.5,415.2h-3c0,0,0,0,0,0c-0.2,0-0.3,0.1-0.5,0.2c-0.1,0.1-0.2,0.3-0.2,0.5v3c0,0.4,0.3,0.6,0.6,0.6h3
			c0.4,0,0.6-0.3,0.6-0.6v-3C-263.8,415.5-264.1,415.2-264.5,415.2z M-265.1,416.4v1.7h-1.7v-1.7H-265.1z"/>
		<path class="st0" d="M-274.5,420.2h-3c-0.4,0-0.6,0.3-0.6,0.6v3c0,0.4,0.3,0.6,0.6,0.6h3c0.4,0,0.6-0.3,0.6-0.6v-3
			C-273.8,420.5-274.1,420.2-274.5,420.2z M-275.1,421.4v1.7h-1.7v-1.7H-275.1z"/>
		<path class="st0" d="M-269.5,420.2h-3c-0.4,0-0.6,0.3-0.6,0.6v3c0,0.4,0.3,0.6,0.6,0.6h3c0.4,0,0.6-0.3,0.6-0.6v-3
			C-268.8,420.5-269.1,420.2-269.5,420.2z M-270.1,421.4v1.7h-1.7v-1.7H-270.1z"/>
		<path class="st0" d="M-264.5,420.2h-3c0,0,0,0,0,0c-0.2,0-0.3,0.1-0.5,0.2c-0.1,0.1-0.2,0.3-0.2,0.5v3c0,0.4,0.3,0.6,0.6,0.6h3
			c0.4,0,0.6-0.3,0.6-0.6v-3C-263.8,420.5-264.1,420.2-264.5,420.2z M-265.1,421.4v1.7h-1.7v-1.7H-265.1z"/>
	</g>
	<path class="st1" d="M-260.8,410.9h-1.4c-0.4,0-0.7,0.3-0.7,0.7s0.3,0.7,0.7,0.7h1.4c0.4,0,0.7-0.3,0.7-0.7
		S-260.4,410.9-260.8,410.9z"/>
	<path class="st1" d="M-264.4,408.4V407c0-0.4-0.3-0.7-0.7-0.7c-0.4,0-0.7,0.3-0.7,0.7v1.4c0,0.4,0.3,0.7,0.7,0.7
		C-264.7,409-264.4,408.7-264.4,408.4z"/>
	<path class="st1" d="M-262.1,409.4l1-1c0.3-0.3,0.3-0.7,0-0.9c-0.3-0.3-0.7-0.3-0.9,0l-1,1c-0.3,0.3-0.3,0.7,0,0.9
		C-262.8,409.7-262.4,409.7-262.1,409.4z"/>
	<path class="st0" d="M-271,430.7c-7.4,0-13.4-6-13.4-13.4s6-13.4,13.4-13.4c1,0,2,0.1,3,0.3c0.4,0.1,0.6,0.5,0.5,0.8
		c-0.1,0.4-0.5,0.6-0.8,0.5c-0.9-0.2-1.8-0.3-2.7-0.3c-6.6,0-12,5.4-12,12c0,6.6,5.4,12,12,12c6.6,0,12-5.4,12-12
		c0-0.9-0.1-1.8-0.3-2.7c-0.1-0.4,0.2-0.8,0.5-0.8c0.4-0.1,0.8,0.2,0.8,0.5c0.2,1,0.3,2,0.3,3C-257.6,424.7-263.6,430.7-271,430.7z"
		/>
</g>
</svg>
