<?xml version="1.0" encoding="utf-8"?>
<!-- Generator: Adobe Illustrator 21.0.0, SVG Export Plug-In . SVG Version: 6.00 Build 0)  -->
<svg version="1.1" id="Layer_1" xmlns="http://www.w3.org/2000/svg" xmlns:xlink="http://www.w3.org/1999/xlink" x="0px" y="0px"
	 viewBox="-329.4 469.3 24.2 28.3" style="enable-background:new -329.4 469.3 24.2 28.3;" xml:space="preserve">
<style type="text/css">
	.st0{fill:#23303E;}
	.st1{fill:#FFFFFF;}
</style>
<g>
	<path class="st0" d="M-319.7,474.2c0-0.9,0.7-1.7,1.7-1.8V472c0-0.4,0.3-0.6,0.6-0.6c0.4,0,0.6,0.3,0.6,0.6v0.4h0.6
		c0.4,0,0.6,0.3,0.6,0.6c0,0.4-0.3,0.6-0.6,0.6h-1.8c-0.3,0-0.5,0.2-0.5,0.5s0.2,0.5,0.5,0.5h1c1,0,1.8,0.8,1.8,1.8
		c0,0.9-0.7,1.7-1.7,1.8v0.5c0,0.4-0.3,0.6-0.6,0.6c-0.4,0-0.6-0.3-0.6-0.6v-0.4h-0.7c-0.4,0-0.6-0.3-0.6-0.6c0-0.4,0.3-0.6,0.6-0.6
		h1.9c0.3,0,0.5-0.2,0.5-0.5s-0.2-0.5-0.5-0.5h-1C-318.9,476-319.7,475.2-319.7,474.2z"/>
	<path class="st1" d="M-320.3,497.4L-320.3,497.4c0.4,0,0.6-0.3,0.7-0.6l0.1-4.4v0c0-0.1-0.1-2.4-1.6-3.8l-2.9-2.7
		c-0.2-0.2-0.5-0.2-0.7-0.1c-0.6,0.3-1.5,1.2-1,2.4c0.4,1.2,1.5,2.8,1.5,2.8c0.2,0.3,0.6,0.4,0.9,0.2c0.3-0.2,0.4-0.6,0.2-0.9
		c0,0-1-1.5-1.4-2.6c-0.1-0.2-0.1-0.4,0-0.5l2.5,2.3c1,1,1.2,2.7,1.2,2.9l-0.1,4.4C-321,497.1-320.7,497.4-320.3,497.4z"/>
	<path class="st1" d="M-327.7,477.6c-0.3,0-0.6,0.3-0.6,0.6l-1,9.2c-0.1,0.9,0.2,1.9,0.8,2.6l3.8,4.7l-0.3,1.8
		c-0.1,0.4,0.2,0.7,0.5,0.8c0,0,0.1,0,0.1,0c0.3,0,0.6-0.2,0.6-0.5l0.4-2c0-0.2,0-0.4-0.1-0.5l-4-5c-0.4-0.5-0.5-1-0.5-1.6l0.9-8.4
		c0.1,0.1,0.2,0.3,0.3,0.6c0.1,1.4,0.4,4.6,0.4,4.6c0,0.4,0.3,0.6,0.7,0.6c0.4,0,0.6-0.3,0.6-0.7c0-0.1-0.3-3.2-0.4-4.7
		C-325.7,478-327,477.6-327.7,477.6z"/>
	<path class="st1" d="M-319.3,483.7c-1-1.2-3-1.2-3.1-1.2c-0.2,0-0.4,0.1-0.5,0.2s-0.2,0.4-0.1,0.5c0.2,1.4,0.7,2.4,1.5,2.9
		c0.5,0.4,1.2,0.5,1.6,0.5s0.7-0.1,0.7-0.1c0.3-0.1,0.4-0.3,0.5-0.6C-318.6,485.1-318.8,484.3-319.3,483.7z M-320.8,485.1
		c-0.4-0.2-0.6-0.6-0.8-1.2c0.4,0.1,0.9,0.3,1.2,0.6c0.2,0.2,0.3,0.5,0.3,0.8C-320.2,485.4-320.5,485.3-320.8,485.1z"/>
	<path class="st1" d="M-311.9,482.7c-0.1-0.1-0.3-0.2-0.5-0.2c-0.1,0-2,0-3.1,1.3c-0.5,0.6-0.7,1.4-0.6,2.3c0,0.3,0.2,0.5,0.5,0.5
		c0,0,0.3,0.1,0.7,0.1c0.4,0,1-0.1,1.6-0.5c0.8-0.5,1.4-1.5,1.5-2.9C-311.7,483.1-311.8,482.9-311.9,482.7z M-314,485.1
		c-0.3,0.2-0.5,0.3-0.8,0.3c0-0.3,0.1-0.5,0.3-0.8c0.3-0.3,0.8-0.5,1.2-0.6C-313.4,484.5-313.7,484.9-314,485.1z"/>
	<path class="st1" d="M-310.3,490.9c0-0.1,1.1-1.7,1.5-2.8c0.5-1.3-0.4-2.2-1-2.4c-0.3-0.1-0.5-0.1-0.7,0.1l-2.9,2.7
		c-1.5,1.4-1.6,3.7-1.6,3.8v0l0.1,4.4c0,0.4,0.3,0.6,0.6,0.6l0,0c0.4,0,0.6-0.3,0.6-0.7l-0.1-4.4c0-0.2,0.1-2,1.2-2.9l2.5-2.3
		c0.1,0.1,0.1,0.3,0,0.5c-0.4,1-1.4,2.6-1.4,2.6c-0.2,0.3-0.1,0.7,0.2,0.9C-310.9,491.3-310.5,491.2-310.3,490.9z"/>
	<path class="st1" d="M-306.2,478.1c0-0.3-0.3-0.6-0.6-0.6c-0.6,0-2,0.4-2.1,2c-0.1,1.4-0.4,4.5-0.4,4.6c0,0.4,0.3,0.7,0.6,0.7
		c0.4,0,0.7-0.3,0.7-0.6c0,0,0.2-3.1,0.4-4.6c0-0.3,0.1-0.5,0.3-0.6l0.9,8.4c0.1,0.6-0.1,1.2-0.5,1.6l-4,5c-0.1,0.1-0.2,0.3-0.1,0.5
		l0.4,2c0.1,0.3,0.3,0.5,0.6,0.5c0,0,0.1,0,0.1,0c0.4-0.1,0.6-0.4,0.5-0.8l-0.3-1.8l3.8-4.7c0.6-0.7,0.9-1.7,0.8-2.6L-306.2,478.1z"
		/>
	<path class="st1" d="M-317.4,469.3c-3.3,0-6.1,2.7-6.1,6.1c0,3.1,2.4,5.7,5.4,6v15.5c0,0.4,0.3,0.6,0.6,0.6s0.6-0.3,0.6-0.6v-15.5
		c3.1-0.3,5.4-2.9,5.4-6C-311.3,472-314.1,469.3-317.4,469.3z M-317.4,480.1c-2.6,0-4.7-2.1-4.7-4.7c0-2.6,2.1-4.8,4.7-4.7
		c2.6,0,4.7,2.1,4.7,4.7C-312.7,478-314.8,480.1-317.4,480.1z"/>
</g>
</svg>
