<?xml version="1.0" encoding="utf-8"?>
<!-- Generator: Adobe Illustrator 21.0.0, SVG Export Plug-In . SVG Version: 6.00 Build 0)  -->
<svg version="1.1" id="Layer_1" xmlns="http://www.w3.org/2000/svg" xmlns:xlink="http://www.w3.org/1999/xlink" x="0px" y="0px"
	 viewBox="-284.4 470.3 26.8 26.8" style="enable-background:new -284.4 470.3 26.8 26.8;" xml:space="preserve">
<style type="text/css">
	.st0{fill:#FFFFFF;}
	.st1{fill:#23303E;}
</style>
<g>
	<g>
		<path class="st0" d="M-274.5,476.6h-3c-0.4,0-0.6,0.3-0.6,0.6v3c0,0.4,0.3,0.6,0.6,0.6h3c0.4,0,0.6-0.3,0.6-0.6v-3
			C-273.8,476.9-274.1,476.6-274.5,476.6z M-275.1,477.8v1.7h-1.7v-1.7H-275.1z"/>
		<path class="st0" d="M-269.5,476.6h-3c-0.4,0-0.6,0.3-0.6,0.6v3c0,0.4,0.3,0.6,0.6,0.6h3c0.4,0,0.6-0.3,0.6-0.6v-3
			C-268.8,476.9-269.1,476.6-269.5,476.6z M-270.1,477.8v1.7h-1.7v-1.7H-270.1z"/>
		<path class="st1" d="M-264.5,476.6h-3c0,0,0,0,0,0c-0.2,0-0.3,0.1-0.5,0.2c-0.1,0.1-0.2,0.3-0.2,0.5v3c0,0.4,0.3,0.6,0.6,0.6h3
			c0.4,0,0.6-0.3,0.6-0.6v-3C-263.8,476.9-264.1,476.6-264.5,476.6z"/>
		<path class="st0" d="M-274.5,481.6h-3c-0.4,0-0.6,0.3-0.6,0.6v3c0,0.4,0.3,0.6,0.6,0.6h3c0.4,0,0.6-0.3,0.6-0.6v-3
			C-273.8,481.9-274.1,481.6-274.5,481.6z M-275.1,482.8v1.7h-1.7v-1.7H-275.1z"/>
		<path class="st0" d="M-269.5,481.6h-3c-0.4,0-0.6,0.3-0.6,0.6v3c0,0.4,0.3,0.6,0.6,0.6h3c0.4,0,0.6-0.3,0.6-0.6v-3
			C-268.8,481.9-269.1,481.6-269.5,481.6z M-270.1,482.8v1.7h-1.7v-1.7H-270.1z"/>
		<path class="st0" d="M-264.5,481.6h-3c0,0,0,0,0,0c-0.2,0-0.3,0.1-0.5,0.2c-0.1,0.1-0.2,0.3-0.2,0.5v3c0,0.4,0.3,0.6,0.6,0.6h3
			c0.4,0,0.6-0.3,0.6-0.6v-3C-263.8,481.9-264.1,481.6-264.5,481.6z M-265.1,482.8v1.7h-1.7v-1.7H-265.1z"/>
		<path class="st0" d="M-274.5,486.6h-3c-0.4,0-0.6,0.3-0.6,0.6v3c0,0.4,0.3,0.6,0.6,0.6h3c0.4,0,0.6-0.3,0.6-0.6v-3
			C-273.8,486.9-274.1,486.6-274.5,486.6z M-275.1,487.8v1.7h-1.7v-1.7H-275.1z"/>
		<path class="st0" d="M-269.5,486.6h-3c-0.4,0-0.6,0.3-0.6,0.6v3c0,0.4,0.3,0.6,0.6,0.6h3c0.4,0,0.6-0.3,0.6-0.6v-3
			C-268.8,486.9-269.1,486.6-269.5,486.6z M-270.1,487.8v1.7h-1.7v-1.7H-270.1z"/>
		<path class="st0" d="M-264.5,486.6h-3c0,0,0,0,0,0c-0.2,0-0.3,0.1-0.5,0.2c-0.1,0.1-0.2,0.3-0.2,0.5v3c0,0.4,0.3,0.6,0.6,0.6h3
			c0.4,0,0.6-0.3,0.6-0.6v-3C-263.8,486.9-264.1,486.6-264.5,486.6z M-265.1,487.8v1.7h-1.7v-1.7H-265.1z"/>
	</g>
	<path class="st1" d="M-260.8,477.3h-1.4c-0.4,0-0.7,0.3-0.7,0.7s0.3,0.7,0.7,0.7h1.4c0.4,0,0.7-0.3,0.7-0.7
		S-260.4,477.3-260.8,477.3z"/>
	<path class="st1" d="M-264.4,474.8v-1.4c0-0.4-0.3-0.7-0.7-0.7c-0.4,0-0.7,0.3-0.7,0.7v1.4c0,0.4,0.3,0.7,0.7,0.7
		C-264.7,475.4-264.4,475.1-264.4,474.8z"/>
	<path class="st1" d="M-262.1,475.8l1-1c0.3-0.3,0.3-0.7,0-0.9c-0.3-0.3-0.7-0.3-0.9,0l-1,1c-0.3,0.3-0.3,0.7,0,0.9
		C-262.8,476.1-262.4,476.1-262.1,475.8z"/>
	<path class="st0" d="M-271,497.1c-7.4,0-13.4-6-13.4-13.4s6-13.4,13.4-13.4c1,0,2,0.1,3,0.3c0.4,0.1,0.6,0.5,0.5,0.8
		c-0.1,0.4-0.5,0.6-0.8,0.5c-0.9-0.2-1.8-0.3-2.7-0.3c-6.6,0-12,5.4-12,12c0,6.6,5.4,12,12,12c6.6,0,12-5.4,12-12
		c0-0.9-0.1-1.8-0.3-2.7c-0.1-0.4,0.2-0.8,0.5-0.8c0.4-0.1,0.8,0.2,0.8,0.5c0.2,1,0.3,2,0.3,3C-257.6,491.1-263.6,497.1-271,497.1z"
		/>
</g>
</svg>
