<?xml version="1.0" encoding="utf-8"?>
<!-- Generator: Adobe Illustrator 21.0.0, SVG Export Plug-In . SVG Version: 6.00 Build 0)  -->
<svg version="1.1" id="Layer_1" xmlns="http://www.w3.org/2000/svg" xmlns:xlink="http://www.w3.org/1999/xlink" x="0px" y="0px"
	 viewBox="-236 470.3 25.1 24.5" style="enable-background:new -236 470.3 25.1 24.5;" xml:space="preserve">
<style type="text/css">
	.st0{fill:#FFFFFF;}
	.st1{fill:#23303E;}
</style>
<g>
	<path class="st0" d="M-214.1,476.8c0.1,0.3,0.4,0.6,0.8,0.5s0.6-0.4,0.5-0.8c-0.6-2.4-2.5-4.3-4.9-4.9c-0.3-0.1-0.7,0.1-0.8,0.5
		c-0.1,0.4,0.1,0.7,0.5,0.8C-216.1,473.4-214.6,474.9-214.1,476.8z"/>
	<path class="st0" d="M-218.4,474.6c-0.4-0.1-0.7,0.1-0.8,0.5c-0.1,0.3,0.1,0.7,0.4,0.8c0.8,0.2,1.5,0.9,1.7,1.7
		c0.1,0.3,0.5,0.5,0.8,0.4c0.3-0.1,0.5-0.4,0.4-0.8C-216.1,475.9-217.1,474.9-218.4,474.6z"/>
	<path class="st0" d="M-235.5,471.6l10.3,1.8c1.2,0.2,2.2,0.9,2.8,2c0.4,0.7,0.7,1.3,1,2c0.3,0.7,0.6,1.5,0.8,2.2h-4.4
		c0.1-0.2,0.1-0.4,0.2-0.6c0.1-0.4-0.1-0.7-0.5-0.8c-0.4-0.1-0.7,0.1-0.8,0.5c-0.1,0.3-0.2,0.6-0.4,0.9h0c-0.6-0.4-1.1-0.9-1.5-1.5
		c-0.2-0.3-0.6-0.3-0.9-0.1c-0.3,0.2-0.3,0.6-0.2,0.9c0.5,0.8,1.2,1.4,2,1.9l3.3,2.1c0.5,0.3,0.7,1,0.3,1.6c-0.3,0.5-1,0.7-1.5,0.4
		l-2.5-1.6c-1-0.6-2.2-1-3.4-0.9c-1.5,0-3-0.6-3.9-1.8c-0.2-0.3-0.6-0.3-0.9-0.1c-0.3,0.2-0.3,0.6-0.1,0.9c0.6,0.8,1.5,1.5,2.5,1.9
		l-0.2,0.2c-0.8,0.8-0.8,2.1,0,2.9c0.2,0.2,0.5,0.4,0.9,0.5c-0.2,1.1,0.4,2.1,1.5,2.4c0.4,0.1,0.8,0.1,1.1-0.1l0.1,0v3.7
		c0,1.2,0.9,2.1,2.1,2.1h15c1.2,0,2.1-0.9,2.1-2.1v-11c0-1.2-0.9-2.1-2.1-2.1h-6.3c0,0,0-0.1,0-0.1c-0.2-0.9-0.5-1.8-0.9-2.6
		c-0.3-0.7-0.7-1.5-1.1-2.1c-0.8-1.4-2.2-2.4-3.7-2.6l-10.3-1.8c-0.4,0-0.7,0.3-0.7,0.6C-235.9,471.2-235.8,471.5-235.5,471.6z
		 M-232.7,484.2l0.7-0.7c0.3,0.1,0.7,0.1,1,0.1c0.3,0,0.6,0,0.8,0.1v0.7l0,0l-1.6,1c-0.4,0.2-0.8,0.1-1-0.2
		C-233,484.8-232.9,484.5-232.7,484.2L-232.7,484.2z M-230.6,487.8c-0.4,0.1-0.7-0.1-0.9-0.4c-0.1-0.3,0-0.6,0.3-0.8l0,0
		c0,0,0.1,0,0.1,0l1-0.6v1.7L-230.6,487.8z M-212.2,481.7v11c0,0.4-0.4,0.8-0.8,0.8h-15c-0.4,0-0.8-0.4-0.8-0.8V484
		c0.2,0.1,0.3,0.2,0.5,0.3l2.5,1.6c0.4,0.2,0.8,0.4,1.3,0.4c0.2,0,0.4,0,0.6-0.1c1.3-0.3,2.1-1.6,1.8-2.9c-0.1-0.6-0.5-1.2-1.1-1.5
		l-1.4-0.9h11.5C-212.6,480.9-212.2,481.2-212.2,481.7C-212.2,481.7-212.2,481.7-212.2,481.7z"/>
	<path class="st1" d="M-220.5,491.1c0.4,0,0.7-0.3,0.7-0.7c0-1.3,1.1-2.4,2.4-2.4c1.3,0,2.4,1.1,2.4,2.4c0,0,0,0,0,0
		c0,0.4,0.3,0.7,0.7,0.7c0.4,0,0.7-0.3,0.7-0.7c0-1.3-0.7-2.6-1.9-3.2c0.9-1,0.8-2.6-0.2-3.5c-1-0.9-2.6-0.8-3.5,0.2
		c-0.9,0.9-0.9,2.4,0,3.3c-1.2,0.7-1.9,1.9-1.9,3.2C-221.1,490.9-220.8,491.1-220.5,491.1z M-218.6,485.6c0-0.6,0.5-1.2,1.2-1.2
		s1.2,0.5,1.2,1.2c0,0.6-0.5,1.2-1.2,1.2l0,0C-218,486.8-218.6,486.2-218.6,485.6z"/>
	<path class="st0" d="M-223,489.8h-3.4c-0.4,0-0.7,0.3-0.7,0.7c0,0.4,0.3,0.7,0.7,0.7h3.4c0.4,0,0.7-0.3,0.7-0.7
		C-222.3,490.1-222.6,489.8-223,489.8z"/>
	<path class="st0" d="M-223,487.4h-3.4c-0.4,0-0.7,0.3-0.7,0.7s0.3,0.7,0.7,0.7h3.4c0.4,0,0.7-0.3,0.7-0.7S-222.6,487.4-223,487.4z"
		/>
</g>
</svg>
