<?xml version="1.0" encoding="utf-8"?>
<!-- Generator: Adobe Illustrator 21.0.0, SVG Export Plug-In . SVG Version: 6.00 Build 0)  -->
<svg version="1.1" id="logo" xmlns="http://www.w3.org/2000/svg" xmlns:xlink="http://www.w3.org/1999/xlink" x="0px" y="0px"
	 viewBox="0 0 155.7 150.9" style="enable-background:new 0 0 155.7 150.9;" xml:space="preserve">
<style type="text/css">
	.st0{fill:url(#el2_1_);}
	.st1{fill:#00B1B4;}
</style>
<linearGradient id="el2_1_" gradientUnits="userSpaceOnUse" x1="113.7227" y1="76.4424" x2="155.1709" y2="151.8175">
	<stop  offset="0" style="stop-color:#007B7D"/>
	<stop  offset="3.574073e-03" style="stop-color:#007C7E"/>
	<stop  offset="0.282" style="stop-color:#009297"/>
	<stop  offset="0.5478" style="stop-color:#00A3AB"/>
	<stop  offset="0.7936" style="stop-color:#00AFB9"/>
	<stop  offset="1" style="stop-color:#00B4BE"/>
</linearGradient>
<path id="el2" class="st0" d="M155.6,150.3c-15.8-16.7-31.6-33.4-47.5-50.1c0.3-0.4,0.5-0.7,0.8-1.1c5.4-7.1,9.9-14.7,13.2-23
	c1.6-4.1,2.1-8.3,2.1-12.6c0-0.7,0-1.3,0.2-2c10.5,29.5,21,59.1,31.4,88.6C155.7,150.2,155.6,150.3,155.6,150.3z"/>
<path id="el1" class="st1" d="M0,140.9c0.1-0.1,0.3-0.1,0.4-0.2c11.2-8.1,22.5-16.1,33.6-24.3c6-4.4,11.9-9.1,17.2-14.4
	c1.1-1.1,2.2-2.3,3.2-3.6c2.1-2.6,2.4-5.5,1.7-8.7c-0.3-1.4-0.6-2.8-0.5-4.3c0-2.2,1.2-4,2.7-5.6c4.9-5,9.9-9.9,14.8-14.8
	c1.2-1.2,2.2-2.4,3.4-3.6c3.6-3.8,5.9-8.3,7.3-13.4c4.5-15.7,9.2-31.3,13.9-47c0.1-0.3,0.2-0.6,0.4-1.1c0.2,0.5,0.4,0.9,0.6,1.3
	c7.3,17.6,14.7,35.2,22,52.7c0.7,1.8,0.5,3.5,0.4,5.3c-1.1,12.5-6,23.5-13.2,33.6c-8,11.2-17.9,20.3-28.9,28.3
	c-3.9,2.9-8.1,5.5-12.1,8.2c-0.4,0.2-0.7,0.5-1.3,0.9c9.9,0,19.4,0,29,0c0,0.1,0,0.2,0,0.2c-0.3,0.1-0.6,0.2-0.9,0.3
	c-21.4,5.7-42.8,11.3-64.1,17c-3.1,0.8-6.2,2-9.3,2.6c-8,1.7-15.7-1.8-19.9-8.8c-0.1-0.2-0.2-0.3-0.3-0.5C0,141.1,0,141,0,140.9z"/>
</svg>
