<?xml version="1.0" encoding="utf-8"?>
<!-- Generator: Adobe Illustrator 21.0.0, SVG Export Plug-In . SVG Version: 6.00 Build 0)  -->
<svg version="1.1" id="logo" xmlns="http://www.w3.org/2000/svg" xmlns:xlink="http://www.w3.org/1999/xlink" x="0px" y="0px"
	 viewBox="0 0 536.5 150.9" style="enable-background:new 0 0 536.5 150.9;" xml:space="preserve">
<style type="text/css">
	.st0{fill:#FFFFFF;}
	.st1{fill:url(#el2_1_);}
	.st2{fill:#00B1B4;}
</style>
<path id="a" class="st0" d="M536.5,130.3c-5.1,0-10,0-14.9,0c-0.3,0-0.8-0.5-1-0.9c-2.6-6.1-5.1-12.2-7.7-18.3
	c-3-7.1-5.9-14.1-8.9-21.2c-0.1-0.4-0.3-0.7-0.6-1.3c-0.4,0.8-0.7,1.5-0.9,2.1c-5.4,12.9-10.7,25.8-16.1,38.7c-0.2,0.5-0.3,1-1.1,1
	c-4.9,0-9.8,0-15,0c0.2-0.5,0.3-0.8,0.5-1.1c10.6-22.9,21.1-45.8,31.7-68.7c0.2-0.4,0.6-0.8,0.9-0.8c0.2,0,0.7,0.5,0.8,0.8
	c10.6,23,21.2,46,31.8,69C536.3,129.7,536.4,129.9,536.5,130.3z"/>
<path id="l" class="st0" d="M389.5,130.3c0-23.2,0-46.3,0-69.6c4.6,0,9.3,0,14,0c0,18.8,0,37.7,0,56.7c8.8,0,17.4,0,26.2,0
	c0,4.4,0,8.6,0,12.9C416.3,130.3,403,130.3,389.5,130.3z"/>
<path id="e" class="st0" d="M341.8,130.3c-15.9,0-31.6,0-47.4,0c0-23.2,0-46.4,0-69.7c15.8,0,31.5,0,47.3,0c0,4.2,0,8.5,0,12.8
	c-11.1,0-22.1,0-33.3,0c0,5.4,0,10.6,0,16c8.6,0,17.3,0,26,0c0,4.4,0,8.6,0,12.9c-8.7,0-17.3,0-26,0c0,5.1,0,10,0,15
	c11.1,0,22.1,0,33.3,0C341.8,121.8,341.8,126,341.8,130.3z"/>
<path id="k" class="st0" d="M218.2,94.3c0.4,0.4,0.7,0.9,1.1,1.3c9.8,11,19.6,21.9,29.4,32.9c0.2,0.3,0.5,0.5,0.7,0.8
	c0.4,0.6,0.3,1-0.5,1c-5,0-9.9,0-14.9,0c-0.4,0-0.8-0.4-1.1-0.7c-8.3-9.2-16.6-18.4-24.9-27.6c-0.2-0.3-0.5-0.5-1-1
	c0,9.9,0,19.6,0,29.3c-4.8,0-9.4,0-14.1,0c0-23.2,0-46.4,0-69.6c4.6,0,9.2,0,14,0c0,9.1,0,18.3,0,27.8c0.6-0.6,0.9-0.9,1.2-1.3
	c7.5-8.5,15-17,22.5-25.6c0.7-0.7,1.3-1.1,2.3-1.1c4.3,0.1,8.6,0,13,0c0.4,0,0.9,0.2,1.3,0.3c-0.2,0.4-0.3,0.9-0.6,1.2
	c-9.2,10.5-18.5,20.9-27.8,31.3C218.7,93.7,218.5,93.9,218.2,94.3z"/>
<linearGradient id="el2_1_" gradientUnits="userSpaceOnUse" x1="113.7227" y1="76.4424" x2="155.1709" y2="151.8175">
	<stop  offset="0" style="stop-color:#007B7D"/>
	<stop  offset="3.574073e-03" style="stop-color:#007C7E"/>
	<stop  offset="0.282" style="stop-color:#009297"/>
	<stop  offset="0.5478" style="stop-color:#00A3AB"/>
	<stop  offset="0.7936" style="stop-color:#00AFB9"/>
	<stop  offset="1" style="stop-color:#00B4BE"/>
</linearGradient>
<path id="el2" class="st1" d="M155.6,150.3c-15.8-16.7-31.6-33.4-47.5-50.1c0.3-0.4,0.5-0.7,0.8-1.1c5.4-7.1,9.9-14.7,13.2-23
	c1.6-4.1,2.1-8.3,2.1-12.6c0-0.7,0-1.3,0.2-2c10.5,29.5,21,59.1,31.4,88.6C155.7,150.2,155.6,150.3,155.6,150.3z"/>
<path id="el1" class="st2" d="M0,140.9c0.1-0.1,0.3-0.1,0.4-0.2c11.2-8.1,22.5-16.1,33.6-24.3c6-4.4,11.9-9.1,17.2-14.4
	c1.1-1.1,2.2-2.3,3.2-3.6c2.1-2.6,2.4-5.5,1.7-8.7c-0.3-1.4-0.6-2.8-0.5-4.3c0-2.2,1.2-4,2.7-5.6c4.9-5,9.9-9.9,14.8-14.8
	c1.2-1.2,2.2-2.4,3.4-3.6c3.6-3.8,5.9-8.3,7.3-13.4c4.5-15.7,9.2-31.3,13.9-47c0.1-0.3,0.2-0.6,0.4-1.1c0.2,0.5,0.4,0.9,0.6,1.3
	c7.3,17.6,14.7,35.2,22,52.7c0.7,1.8,0.5,3.5,0.4,5.3c-1.1,12.5-6,23.5-13.2,33.6c-8,11.2-17.9,20.3-28.9,28.3
	c-3.9,2.9-8.1,5.5-12.1,8.2c-0.4,0.2-0.7,0.5-1.3,0.9c9.9,0,19.4,0,29,0c0,0.1,0,0.2,0,0.2c-0.3,0.1-0.6,0.2-0.9,0.3
	c-21.4,5.7-42.8,11.3-64.1,17c-3.1,0.8-6.2,2-9.3,2.6c-8,1.7-15.7-1.8-19.9-8.8c-0.1-0.2-0.2-0.3-0.3-0.5C0,141.1,0,141,0,140.9z"/>
</svg>
